<svg width="30" height="30" viewBox="0 0 30 30" fill="none" xmlns="http://www.w3.org/2000/svg">
<path d="M18.1413 21.5407C12.8068 21.5407 8.48305 17.2164 8.48305 11.8808C8.48305 8.20238 10.5625 5.04318 13.5874 3.41211C7.85152 4.13826 3.41211 9.02574 3.41211 14.9595C3.41211 21.3933 8.62836 26.6117 15.0635 26.6117C20.9967 26.6117 25.8839 22.1707 26.6111 16.4352C24.9795 19.4618 21.819 21.5407 18.1413 21.5407Z" fill="#CACACA"/>
<path d="M19.3316 17.7265L21.3754 16.6514L23.4193 17.7265L23.0287 15.4506L24.6814 13.8395L22.3971 13.5075L21.3754 11.4373L20.3532 13.5075L18.0696 13.8395L19.7222 15.4506L19.3316 17.7265Z" fill="#CACACA"/>
</svg>
